<svg width="200" height="200" viewBox="0 0 200 200" fill="none" xmlns="http://www.w3.org/2000/svg">
<g clip-path="url(#clip0_387_1098)">
<path d="M146.667 146.667H133.333V133.333H146.667V146.667Z" fill="#007AFF"/>
<path d="M106.667 146.667H120V133.333H106.667V146.667Z" fill="#007AFF"/>
<path d="M173.333 146.667H160V133.333H173.333V146.667Z" fill="#007AFF"/>
<path fill-rule="evenodd" clip-rule="evenodd" d="M40 80V46.6667C40 40.5383 41.2071 34.47 43.5523 28.8081C45.8975 23.1462 49.335 18.0018 53.6684 13.6684C58.0018 9.33495 63.1462 5.89751 68.8081 3.55229C74.47 1.20707 80.5383 0 86.6667 0C92.795 0 98.8634 1.20707 104.525 3.55229C110.187 5.89751 115.332 9.33495 119.665 13.6684C123.998 18.0018 127.436 23.1462 129.781 28.8081C132.126 34.47 133.333 40.5383 133.333 46.6667V80H153.333C158.638 80 163.725 82.1071 167.475 85.8579C171.226 89.6086 173.333 94.6957 173.333 100V107.333C180.869 108.863 187.643 112.952 192.509 118.905C197.375 124.858 200.033 132.311 200.033 140C200.033 147.689 197.375 155.142 192.509 161.095C187.643 167.048 180.869 171.137 173.333 172.667V180C173.333 185.304 171.226 190.391 167.475 194.142C163.725 197.893 158.638 200 153.333 200H20C14.6957 200 9.60859 197.893 5.85786 194.142C2.10714 190.391 0 185.304 0 180L0 100C0 94.6957 2.10714 89.6086 5.85786 85.8579C9.60859 82.1071 14.6957 80 20 80H40ZM53.3333 46.6667C53.3333 37.8261 56.8452 29.3477 63.0964 23.0964C69.3477 16.8452 77.8261 13.3333 86.6667 13.3333C95.5072 13.3333 103.986 16.8452 110.237 23.0964C116.488 29.3477 120 37.8261 120 46.6667V80H53.3333V46.6667ZM113.333 120C108.029 120 102.942 122.107 99.1912 125.858C95.4405 129.609 93.3333 134.696 93.3333 140C93.3333 145.304 95.4405 150.391 99.1912 154.142C102.942 157.893 108.029 160 113.333 160H166.667C171.971 160 177.058 157.893 180.809 154.142C184.56 150.391 186.667 145.304 186.667 140C186.667 134.696 184.56 129.609 180.809 125.858C177.058 122.107 171.971 120 166.667 120H113.333Z" fill="#007AFF"/>
</g>
<defs>
<clipPath id="clip0_387_1098">
<rect width="200" height="200" fill="white"/>
</clipPath>
</defs>
</svg>
